<mxfile host="app.diagrams.net" agent="Mozilla/5.0 (Windows NT 10.0; Win64; x64) AppleWebKit/537.36 (KHTML, like Gecko) Chrome/133.0.0.0 Safari/537.36" version="26.0.16">
  <diagram name="Página-1" id="vH-OwV5uXmRrGs1kFZjD">
    <mxGraphModel dx="1973" dy="2292" grid="1" gridSize="10" guides="1" tooltips="1" connect="1" arrows="1" fold="1" page="1" pageScale="1" pageWidth="827" pageHeight="1169" math="0" shadow="0">
      <root>
        <mxCell id="0" />
        <mxCell id="1" parent="0" />
        <mxCell id="4ot0IjOBkn7LWyJ6OAC--1" value="Paciente" style="shape=umlActor;verticalLabelPosition=bottom;verticalAlign=top;html=1;outlineConnect=0;" vertex="1" parent="1">
          <mxGeometry x="-160" y="100" width="30" height="60" as="geometry" />
        </mxCell>
        <mxCell id="4ot0IjOBkn7LWyJ6OAC--2" value="Enfermeros" style="shape=umlActor;verticalLabelPosition=bottom;verticalAlign=top;html=1;outlineConnect=0;" vertex="1" parent="1">
          <mxGeometry x="560" y="260" width="30" height="60" as="geometry" />
        </mxCell>
        <mxCell id="4ot0IjOBkn7LWyJ6OAC--3" value="Médico" style="shape=umlActor;verticalLabelPosition=bottom;verticalAlign=top;html=1;outlineConnect=0;" vertex="1" parent="1">
          <mxGeometry y="-290" width="30" height="60" as="geometry" />
        </mxCell>
        <mxCell id="4ot0IjOBkn7LWyJ6OAC--6" value="Crear cuenta en el sistema" style="ellipse;whiteSpace=wrap;html=1;" vertex="1" parent="1">
          <mxGeometry x="-20" y="-80" width="120" height="80" as="geometry" />
        </mxCell>
        <mxCell id="4ot0IjOBkn7LWyJ6OAC--7" value="Ver citas médicas pasadas y futuras" style="ellipse;whiteSpace=wrap;html=1;" vertex="1" parent="1">
          <mxGeometry x="30" y="90" width="120" height="80" as="geometry" />
        </mxCell>
        <mxCell id="4ot0IjOBkn7LWyJ6OAC--8" value="Solicitar nuevas citas con distintos especialistas" style="ellipse;whiteSpace=wrap;html=1;" vertex="1" parent="1">
          <mxGeometry x="30" y="180" width="120" height="80" as="geometry" />
        </mxCell>
        <mxCell id="4ot0IjOBkn7LWyJ6OAC--9" value="Ver los medicamentos prescritos y pedir receta" style="ellipse;whiteSpace=wrap;html=1;" vertex="1" parent="1">
          <mxGeometry x="30" y="280" width="120" height="80" as="geometry" />
        </mxCell>
        <mxCell id="4ot0IjOBkn7LWyJ6OAC--10" value="Consultar estado de pago" style="ellipse;whiteSpace=wrap;html=1;" vertex="1" parent="1">
          <mxGeometry x="30" y="380" width="120" height="80" as="geometry" />
        </mxCell>
        <mxCell id="4ot0IjOBkn7LWyJ6OAC--11" value="Iniciar sesión" style="ellipse;whiteSpace=wrap;html=1;" vertex="1" parent="1">
          <mxGeometry x="230" y="-40" width="120" height="80" as="geometry" />
        </mxCell>
        <mxCell id="4ot0IjOBkn7LWyJ6OAC--12" value="Agendar nuevas consultas" style="ellipse;whiteSpace=wrap;html=1;" vertex="1" parent="1">
          <mxGeometry x="200" y="-150" width="120" height="80" as="geometry" />
        </mxCell>
        <mxCell id="4ot0IjOBkn7LWyJ6OAC--13" value="Ver historial médico&amp;nbsp;" style="ellipse;whiteSpace=wrap;html=1;" vertex="1" parent="1">
          <mxGeometry x="200" y="-240" width="120" height="80" as="geometry" />
        </mxCell>
        <mxCell id="4ot0IjOBkn7LWyJ6OAC--14" value="Prescribir medicamentos" style="ellipse;whiteSpace=wrap;html=1;" vertex="1" parent="1">
          <mxGeometry x="200" y="-340" width="120" height="80" as="geometry" />
        </mxCell>
        <mxCell id="4ot0IjOBkn7LWyJ6OAC--15" value="Enviar recetas electronicas" style="ellipse;whiteSpace=wrap;html=1;" vertex="1" parent="1">
          <mxGeometry x="200" y="-440" width="120" height="80" as="geometry" />
        </mxCell>
        <mxCell id="4ot0IjOBkn7LWyJ6OAC--16" value="Ver citas programadas&amp;nbsp;" style="ellipse;whiteSpace=wrap;html=1;" vertex="1" parent="1">
          <mxGeometry x="260" y="110" width="120" height="80" as="geometry" />
        </mxCell>
        <mxCell id="4ot0IjOBkn7LWyJ6OAC--17" value="Ver estado de los pacientes" style="ellipse;whiteSpace=wrap;html=1;" vertex="1" parent="1">
          <mxGeometry x="260" y="210" width="120" height="80" as="geometry" />
        </mxCell>
        <mxCell id="4ot0IjOBkn7LWyJ6OAC--18" value="Administrar distribución de medicamentos" style="ellipse;whiteSpace=wrap;html=1;" vertex="1" parent="1">
          <mxGeometry x="260" y="310" width="120" height="80" as="geometry" />
        </mxCell>
        <mxCell id="4ot0IjOBkn7LWyJ6OAC--19" value="Registrar las observaciones de&amp;nbsp;&lt;div&gt;los pacientes&amp;nbsp;&lt;/div&gt;" style="ellipse;whiteSpace=wrap;html=1;" vertex="1" parent="1">
          <mxGeometry x="260" y="410" width="120" height="80" as="geometry" />
        </mxCell>
        <mxCell id="4ot0IjOBkn7LWyJ6OAC--20" value="Adminstrador&amp;nbsp;" style="shape=umlActor;verticalLabelPosition=bottom;verticalAlign=top;html=1;outlineConnect=0;" vertex="1" parent="1">
          <mxGeometry x="700" y="-90" width="30" height="60" as="geometry" />
        </mxCell>
        <mxCell id="4ot0IjOBkn7LWyJ6OAC--22" value="Crear y eliminar cuentas de usuarios" style="ellipse;whiteSpace=wrap;html=1;" vertex="1" parent="1">
          <mxGeometry x="430" y="-310" width="120" height="80" as="geometry" />
        </mxCell>
        <mxCell id="4ot0IjOBkn7LWyJ6OAC--23" value="Gestionar calendario de citas&amp;nbsp;" style="ellipse;whiteSpace=wrap;html=1;" vertex="1" parent="1">
          <mxGeometry x="430" y="-210" width="120" height="80" as="geometry" />
        </mxCell>
        <mxCell id="4ot0IjOBkn7LWyJ6OAC--24" value="Generar reportes de actividad del hospital" style="ellipse;whiteSpace=wrap;html=1;" vertex="1" parent="1">
          <mxGeometry x="430" y="-120" width="120" height="80" as="geometry" />
        </mxCell>
        <mxCell id="4ot0IjOBkn7LWyJ6OAC--25" value="Procesar pagos de pacientes&amp;nbsp;" style="ellipse;whiteSpace=wrap;html=1;" vertex="1" parent="1">
          <mxGeometry x="430" y="10" width="120" height="80" as="geometry" />
        </mxCell>
        <mxCell id="4ot0IjOBkn7LWyJ6OAC--26" value="" style="endArrow=none;html=1;rounded=0;exitX=0.5;exitY=0.5;exitDx=0;exitDy=0;exitPerimeter=0;entryX=0.003;entryY=0.6;entryDx=0;entryDy=0;entryPerimeter=0;" edge="1" parent="1" source="4ot0IjOBkn7LWyJ6OAC--1" target="4ot0IjOBkn7LWyJ6OAC--6">
          <mxGeometry width="50" height="50" relative="1" as="geometry">
            <mxPoint y="140" as="sourcePoint" />
            <mxPoint x="50" y="90" as="targetPoint" />
          </mxGeometry>
        </mxCell>
        <mxCell id="4ot0IjOBkn7LWyJ6OAC--27" value="" style="endArrow=none;html=1;rounded=0;exitX=0.5;exitY=0.5;exitDx=0;exitDy=0;exitPerimeter=0;entryX=0;entryY=0.5;entryDx=0;entryDy=0;" edge="1" parent="1" source="4ot0IjOBkn7LWyJ6OAC--1" target="4ot0IjOBkn7LWyJ6OAC--7">
          <mxGeometry width="50" height="50" relative="1" as="geometry">
            <mxPoint y="140" as="sourcePoint" />
            <mxPoint x="50" y="90" as="targetPoint" />
          </mxGeometry>
        </mxCell>
        <mxCell id="4ot0IjOBkn7LWyJ6OAC--30" value="" style="endArrow=none;html=1;rounded=0;entryX=0;entryY=0.5;entryDx=0;entryDy=0;exitX=0.5;exitY=0.5;exitDx=0;exitDy=0;exitPerimeter=0;" edge="1" parent="1" source="4ot0IjOBkn7LWyJ6OAC--1" target="4ot0IjOBkn7LWyJ6OAC--8">
          <mxGeometry width="50" height="50" relative="1" as="geometry">
            <mxPoint y="140" as="sourcePoint" />
            <mxPoint x="50" y="90" as="targetPoint" />
          </mxGeometry>
        </mxCell>
        <mxCell id="4ot0IjOBkn7LWyJ6OAC--31" value="" style="endArrow=none;html=1;rounded=0;entryX=0;entryY=0.5;entryDx=0;entryDy=0;exitX=0.5;exitY=0.5;exitDx=0;exitDy=0;exitPerimeter=0;" edge="1" parent="1" source="4ot0IjOBkn7LWyJ6OAC--1" target="4ot0IjOBkn7LWyJ6OAC--9">
          <mxGeometry width="50" height="50" relative="1" as="geometry">
            <mxPoint y="140" as="sourcePoint" />
            <mxPoint x="50" y="90" as="targetPoint" />
          </mxGeometry>
        </mxCell>
        <mxCell id="4ot0IjOBkn7LWyJ6OAC--32" value="" style="endArrow=none;html=1;rounded=0;exitX=0;exitY=0;exitDx=0;exitDy=0;entryX=0.5;entryY=0.5;entryDx=0;entryDy=0;entryPerimeter=0;" edge="1" parent="1" source="4ot0IjOBkn7LWyJ6OAC--10" target="4ot0IjOBkn7LWyJ6OAC--1">
          <mxGeometry width="50" height="50" relative="1" as="geometry">
            <mxPoint y="280" as="sourcePoint" />
            <mxPoint x="50" y="230" as="targetPoint" />
          </mxGeometry>
        </mxCell>
        <mxCell id="4ot0IjOBkn7LWyJ6OAC--33" value="" style="endArrow=none;html=1;rounded=0;entryX=0.5;entryY=0.5;entryDx=0;entryDy=0;entryPerimeter=0;exitX=1;exitY=0.5;exitDx=0;exitDy=0;" edge="1" parent="1" source="4ot0IjOBkn7LWyJ6OAC--16" target="4ot0IjOBkn7LWyJ6OAC--2">
          <mxGeometry width="50" height="50" relative="1" as="geometry">
            <mxPoint x="440" y="320" as="sourcePoint" />
            <mxPoint x="490" y="270" as="targetPoint" />
          </mxGeometry>
        </mxCell>
        <mxCell id="4ot0IjOBkn7LWyJ6OAC--34" value="" style="endArrow=none;html=1;rounded=0;entryX=0.5;entryY=0.5;entryDx=0;entryDy=0;entryPerimeter=0;exitX=1;exitY=0.5;exitDx=0;exitDy=0;" edge="1" parent="1" source="4ot0IjOBkn7LWyJ6OAC--17" target="4ot0IjOBkn7LWyJ6OAC--2">
          <mxGeometry width="50" height="50" relative="1" as="geometry">
            <mxPoint x="440" y="320" as="sourcePoint" />
            <mxPoint x="490" y="270" as="targetPoint" />
          </mxGeometry>
        </mxCell>
        <mxCell id="4ot0IjOBkn7LWyJ6OAC--35" value="" style="endArrow=none;html=1;rounded=0;entryX=0.5;entryY=0.5;entryDx=0;entryDy=0;entryPerimeter=0;exitX=1;exitY=0.5;exitDx=0;exitDy=0;" edge="1" parent="1" source="4ot0IjOBkn7LWyJ6OAC--18" target="4ot0IjOBkn7LWyJ6OAC--2">
          <mxGeometry width="50" height="50" relative="1" as="geometry">
            <mxPoint x="440" y="320" as="sourcePoint" />
            <mxPoint x="490" y="270" as="targetPoint" />
          </mxGeometry>
        </mxCell>
        <mxCell id="4ot0IjOBkn7LWyJ6OAC--36" value="" style="endArrow=none;html=1;rounded=0;entryX=0.5;entryY=0.5;entryDx=0;entryDy=0;entryPerimeter=0;exitX=1;exitY=0.5;exitDx=0;exitDy=0;" edge="1" parent="1" source="4ot0IjOBkn7LWyJ6OAC--19" target="4ot0IjOBkn7LWyJ6OAC--2">
          <mxGeometry width="50" height="50" relative="1" as="geometry">
            <mxPoint x="440" y="320" as="sourcePoint" />
            <mxPoint x="490" y="270" as="targetPoint" />
          </mxGeometry>
        </mxCell>
        <mxCell id="4ot0IjOBkn7LWyJ6OAC--37" value="" style="endArrow=none;html=1;rounded=0;entryX=1;entryY=0.5;entryDx=0;entryDy=0;exitX=0.5;exitY=0.5;exitDx=0;exitDy=0;exitPerimeter=0;" edge="1" parent="1" source="4ot0IjOBkn7LWyJ6OAC--20" target="4ot0IjOBkn7LWyJ6OAC--22">
          <mxGeometry width="50" height="50" relative="1" as="geometry">
            <mxPoint x="500" y="-110" as="sourcePoint" />
            <mxPoint x="550" y="-160" as="targetPoint" />
          </mxGeometry>
        </mxCell>
        <mxCell id="4ot0IjOBkn7LWyJ6OAC--38" value="" style="endArrow=none;html=1;rounded=0;entryX=0.5;entryY=0.5;entryDx=0;entryDy=0;entryPerimeter=0;exitX=1;exitY=0.5;exitDx=0;exitDy=0;" edge="1" parent="1" source="4ot0IjOBkn7LWyJ6OAC--23" target="4ot0IjOBkn7LWyJ6OAC--20">
          <mxGeometry width="50" height="50" relative="1" as="geometry">
            <mxPoint x="500" y="-110" as="sourcePoint" />
            <mxPoint x="550" y="-160" as="targetPoint" />
          </mxGeometry>
        </mxCell>
        <mxCell id="4ot0IjOBkn7LWyJ6OAC--40" value="" style="endArrow=none;html=1;rounded=0;entryX=0.5;entryY=0.5;entryDx=0;entryDy=0;entryPerimeter=0;exitX=1;exitY=0.5;exitDx=0;exitDy=0;" edge="1" parent="1" source="4ot0IjOBkn7LWyJ6OAC--24" target="4ot0IjOBkn7LWyJ6OAC--20">
          <mxGeometry width="50" height="50" relative="1" as="geometry">
            <mxPoint x="500" y="-110" as="sourcePoint" />
            <mxPoint x="550" y="-160" as="targetPoint" />
          </mxGeometry>
        </mxCell>
        <mxCell id="4ot0IjOBkn7LWyJ6OAC--41" value="" style="endArrow=none;html=1;rounded=0;entryX=0.5;entryY=0.5;entryDx=0;entryDy=0;entryPerimeter=0;exitX=1;exitY=0.5;exitDx=0;exitDy=0;" edge="1" parent="1" source="4ot0IjOBkn7LWyJ6OAC--25" target="4ot0IjOBkn7LWyJ6OAC--20">
          <mxGeometry width="50" height="50" relative="1" as="geometry">
            <mxPoint x="500" y="-110" as="sourcePoint" />
            <mxPoint x="550" y="-160" as="targetPoint" />
          </mxGeometry>
        </mxCell>
        <mxCell id="4ot0IjOBkn7LWyJ6OAC--42" value="" style="endArrow=none;html=1;rounded=0;entryX=0;entryY=0.5;entryDx=0;entryDy=0;exitX=0.5;exitY=0.5;exitDx=0;exitDy=0;exitPerimeter=0;" edge="1" parent="1" source="4ot0IjOBkn7LWyJ6OAC--3" target="4ot0IjOBkn7LWyJ6OAC--15">
          <mxGeometry width="50" height="50" relative="1" as="geometry">
            <mxPoint x="160" y="-180" as="sourcePoint" />
            <mxPoint x="210" y="-230" as="targetPoint" />
          </mxGeometry>
        </mxCell>
        <mxCell id="4ot0IjOBkn7LWyJ6OAC--43" value="" style="endArrow=none;html=1;rounded=0;entryX=0;entryY=0.5;entryDx=0;entryDy=0;exitX=0.5;exitY=0.5;exitDx=0;exitDy=0;exitPerimeter=0;" edge="1" parent="1" source="4ot0IjOBkn7LWyJ6OAC--3" target="4ot0IjOBkn7LWyJ6OAC--14">
          <mxGeometry width="50" height="50" relative="1" as="geometry">
            <mxPoint x="160" y="-180" as="sourcePoint" />
            <mxPoint x="200" y="-240" as="targetPoint" />
          </mxGeometry>
        </mxCell>
        <mxCell id="4ot0IjOBkn7LWyJ6OAC--44" value="" style="endArrow=none;html=1;rounded=0;entryX=0;entryY=0.5;entryDx=0;entryDy=0;exitX=0.5;exitY=0.5;exitDx=0;exitDy=0;exitPerimeter=0;" edge="1" parent="1" source="4ot0IjOBkn7LWyJ6OAC--3" target="4ot0IjOBkn7LWyJ6OAC--13">
          <mxGeometry width="50" height="50" relative="1" as="geometry">
            <mxPoint x="110" y="-160" as="sourcePoint" />
            <mxPoint x="160" y="-210" as="targetPoint" />
          </mxGeometry>
        </mxCell>
        <mxCell id="4ot0IjOBkn7LWyJ6OAC--45" value="" style="endArrow=none;html=1;rounded=0;exitX=0.5;exitY=0.5;exitDx=0;exitDy=0;exitPerimeter=0;entryX=0;entryY=0.5;entryDx=0;entryDy=0;" edge="1" parent="1" source="4ot0IjOBkn7LWyJ6OAC--3" target="4ot0IjOBkn7LWyJ6OAC--12">
          <mxGeometry width="50" height="50" relative="1" as="geometry">
            <mxPoint x="160" y="-180" as="sourcePoint" />
            <mxPoint x="210" y="-230" as="targetPoint" />
          </mxGeometry>
        </mxCell>
        <mxCell id="4ot0IjOBkn7LWyJ6OAC--46" value="" style="endArrow=none;html=1;rounded=0;entryX=0.5;entryY=0.5;entryDx=0;entryDy=0;entryPerimeter=0;exitX=0;exitY=0;exitDx=0;exitDy=0;" edge="1" parent="1" source="4ot0IjOBkn7LWyJ6OAC--11" target="4ot0IjOBkn7LWyJ6OAC--3">
          <mxGeometry width="50" height="50" relative="1" as="geometry">
            <mxPoint x="160" y="-180" as="sourcePoint" />
            <mxPoint x="210" y="-230" as="targetPoint" />
          </mxGeometry>
        </mxCell>
        <mxCell id="4ot0IjOBkn7LWyJ6OAC--47" value="" style="endArrow=none;html=1;rounded=0;entryX=0;entryY=1;entryDx=0;entryDy=0;exitX=0.5;exitY=0.5;exitDx=0;exitDy=0;exitPerimeter=0;" edge="1" parent="1" source="4ot0IjOBkn7LWyJ6OAC--1" target="4ot0IjOBkn7LWyJ6OAC--11">
          <mxGeometry width="50" height="50" relative="1" as="geometry">
            <mxPoint x="-140" y="130" as="sourcePoint" />
            <mxPoint x="250" y="60" as="targetPoint" />
          </mxGeometry>
        </mxCell>
        <mxCell id="4ot0IjOBkn7LWyJ6OAC--48" value="" style="endArrow=none;html=1;rounded=0;entryX=1;entryY=1;entryDx=0;entryDy=0;" edge="1" parent="1" source="4ot0IjOBkn7LWyJ6OAC--2" target="4ot0IjOBkn7LWyJ6OAC--11">
          <mxGeometry width="50" height="50" relative="1" as="geometry">
            <mxPoint x="370" y="170" as="sourcePoint" />
            <mxPoint x="420" y="120" as="targetPoint" />
          </mxGeometry>
        </mxCell>
        <mxCell id="4ot0IjOBkn7LWyJ6OAC--49" value="" style="endArrow=none;html=1;rounded=0;entryX=0.5;entryY=0.5;entryDx=0;entryDy=0;entryPerimeter=0;exitX=1;exitY=0.5;exitDx=0;exitDy=0;" edge="1" parent="1" source="4ot0IjOBkn7LWyJ6OAC--11" target="4ot0IjOBkn7LWyJ6OAC--20">
          <mxGeometry width="50" height="50" relative="1" as="geometry">
            <mxPoint x="420" y="40" as="sourcePoint" />
            <mxPoint x="470" y="-10" as="targetPoint" />
          </mxGeometry>
        </mxCell>
      </root>
    </mxGraphModel>
  </diagram>
</mxfile>
